<svg width="500" height="500" viewBox="0 0 500 500" fill="none" xmlns="http://www.w3.org/2000/svg">
<path d="M376.779 207.073H121.51L159.954 487.94H337.104L376.779 207.073Z" stroke="#2F5533" stroke-width="17.7764"/>
<rect x="111.555" y="176.498" width="275.889" height="29.8643" fill="#2F5533" stroke="#2F5533" stroke-width="7.11055"/>
<path fill-rule="evenodd" clip-rule="evenodd" d="M246.656 17.2211H253.767V257.558H267.988V17.2211V3H253.767H246.656H232.435V17.2211V257.558H246.656V17.2211Z" fill="#2F5533"/>
<path fill-rule="evenodd" clip-rule="evenodd" d="M229.619 64.9907C173.854 73.6249 129.693 117.38 120.45 172.942H138.513C148.633 120.68 194.636 81.216 249.855 81.216C305.075 81.216 351.077 120.68 361.197 172.942H379.261C370.018 117.38 325.857 73.6249 270.091 64.9907C265.887 71.7437 258.396 76.2384 249.855 76.2384C241.315 76.2384 233.824 71.7437 229.619 64.9907Z" fill="#2F5533"/>
<path fill-rule="evenodd" clip-rule="evenodd" d="M270.164 70.0652C265.154 75.6036 257.911 79.0834 249.855 79.0834C241.762 79.0834 234.49 75.5718 229.478 69.9893C221.814 70.9432 215.547 72.3989 210.552 73.9491C218.31 87.6294 233.005 96.8598 249.855 96.8598C266.767 96.8598 281.507 87.5618 289.243 73.7988C284.324 72.3466 278.053 70.9892 270.164 70.0652Z" fill="#2F5533"/>
<path fill-rule="evenodd" clip-rule="evenodd" d="M152.085 257.558H346.204L316.033 471.585H181.32L152.085 257.558ZM280.431 460.92C292.801 460.92 302.829 450.892 302.829 438.521C302.829 426.151 292.801 416.123 280.431 416.123C268.061 416.123 258.032 426.151 258.032 438.521C258.032 450.892 268.061 460.92 280.431 460.92ZM232.435 433.544C232.435 445.914 222.407 455.942 210.036 455.942C197.666 455.942 187.638 445.914 187.638 433.544C187.638 421.174 197.666 411.146 210.036 411.146C222.407 411.146 232.435 421.174 232.435 433.544ZM248.434 415.412C260.804 415.412 270.832 405.384 270.832 393.014C270.832 380.644 260.804 370.616 248.434 370.616C236.064 370.616 226.036 380.644 226.036 393.014C226.036 405.384 236.064 415.412 248.434 415.412ZM218.214 364.572C218.214 376.942 208.186 386.97 195.815 386.97C183.445 386.97 173.417 376.942 173.417 364.572C173.417 352.202 183.445 342.174 195.815 342.174C208.186 342.174 218.214 352.202 218.214 364.572ZM296.074 379.859C308.444 379.859 318.472 369.831 318.472 357.461C318.472 345.091 308.444 335.063 296.074 335.063C283.704 335.063 273.676 345.091 273.676 357.461C273.676 369.831 283.704 379.859 296.074 379.859Z" fill="#2F5533"/>
<path d="M346.204 257.558L349.724 258.054L350.295 254.002H346.204V257.558ZM152.085 257.558V254.002H148.012L148.563 258.039L152.085 257.558ZM316.033 471.585V475.141H319.123L319.554 472.082L316.033 471.585ZM181.32 471.585L177.798 472.066L178.217 475.141H181.32V471.585ZM346.204 254.002H152.085V261.113H346.204V254.002ZM319.554 472.082L349.724 258.054L342.683 257.061L312.513 471.089L319.554 472.082ZM181.32 475.141H316.033V468.03H181.32V475.141ZM148.563 258.039L177.798 472.066L184.843 471.104L155.608 257.076L148.563 258.039ZM299.274 438.521C299.274 448.928 290.837 457.364 280.431 457.364V464.475C294.764 464.475 306.384 452.855 306.384 438.521H299.274ZM280.431 419.678C290.837 419.678 299.274 428.115 299.274 438.521H306.384C306.384 424.188 294.764 412.568 280.431 412.568V419.678ZM261.588 438.521C261.588 428.115 270.024 419.678 280.431 419.678V412.568C266.097 412.568 254.477 424.188 254.477 438.521H261.588ZM280.431 457.364C270.024 457.364 261.588 448.928 261.588 438.521H254.477C254.477 452.855 266.097 464.475 280.431 464.475V457.364ZM210.036 459.497C224.37 459.497 235.99 447.878 235.99 433.544H228.879C228.879 443.95 220.443 452.387 210.036 452.387V459.497ZM184.083 433.544C184.083 447.878 195.703 459.497 210.036 459.497V452.387C199.63 452.387 191.194 443.95 191.194 433.544H184.083ZM210.036 407.59C195.703 407.59 184.083 419.21 184.083 433.544H191.194C191.194 423.137 199.63 414.701 210.036 414.701V407.59ZM235.99 433.544C235.99 419.21 224.37 407.59 210.036 407.59V414.701C220.443 414.701 228.879 423.137 228.879 433.544H235.99ZM267.277 393.014C267.277 403.421 258.841 411.857 248.434 411.857V418.967C262.768 418.967 274.387 407.348 274.387 393.014H267.277ZM248.434 374.171C258.841 374.171 267.277 382.607 267.277 393.014H274.387C274.387 378.68 262.768 367.06 248.434 367.06V374.171ZM229.591 393.014C229.591 382.607 238.027 374.171 248.434 374.171V367.06C234.1 367.06 222.48 378.68 222.48 393.014H229.591ZM248.434 411.857C238.027 411.857 229.591 403.421 229.591 393.014H222.48C222.48 407.348 234.1 418.967 248.434 418.967V411.857ZM195.815 390.525C210.149 390.525 221.769 378.906 221.769 364.572H214.658C214.658 374.978 206.222 383.415 195.815 383.415V390.525ZM169.862 364.572C169.862 378.906 181.482 390.525 195.815 390.525V383.415C185.409 383.415 176.972 374.978 176.972 364.572H169.862ZM195.815 338.618C181.482 338.618 169.862 350.238 169.862 364.572H176.972C176.972 354.165 185.409 345.729 195.815 345.729V338.618ZM221.769 364.572C221.769 350.238 210.149 338.618 195.815 338.618V345.729C206.222 345.729 214.658 354.165 214.658 364.572H221.769ZM314.917 357.461C314.917 367.868 306.481 376.304 296.074 376.304V383.414C310.408 383.414 322.027 371.795 322.027 357.461H314.917ZM296.074 338.618C306.481 338.618 314.917 347.054 314.917 357.461H322.027C322.027 343.127 310.408 331.507 296.074 331.507V338.618ZM277.231 357.461C277.231 347.054 285.667 338.618 296.074 338.618V331.507C281.74 331.507 270.12 343.127 270.12 357.461H277.231ZM296.074 376.304C285.667 376.304 277.231 367.868 277.231 357.461H270.12C270.12 371.795 281.74 383.414 296.074 383.414V376.304Z" fill="#2F5533"/>
</svg>
