<?xml version="1.0" encoding="UTF-8" standalone="no"?>
<svg
   xmlns:dc="http://purl.org/dc/elements/1.1/"
   xmlns:cc="http://creativecommons.org/ns#"
   xmlns:rdf="http://www.w3.org/1999/02/22-rdf-syntax-ns#"
   xmlns:svg="http://www.w3.org/2000/svg"
   xmlns="http://www.w3.org/2000/svg"
   xmlns:sodipodi="http://sodipodi.sourceforge.net/DTD/sodipodi-0.dtd"
   xmlns:inkscape="http://www.inkscape.org/namespaces/inkscape"
   id="Layer_1"
   data-name="Layer 1"
   viewBox="0 0 122.82 122.88"
   version="1.1"
   sodipodi:docname="archery-icon.svg"
   inkscape:version="1.0.2-2 (e86c870879, 2021-01-15)">
  <metadata
     id="metadata13">
    <rdf:RDF>
      <cc:Work
         rdf:about="">
        <dc:format>image/svg+xml</dc:format>
        <dc:type
           rdf:resource="http://purl.org/dc/dcmitype/StillImage" />
      </cc:Work>
    </rdf:RDF>
  </metadata>
  <sodipodi:namedview
     pagecolor="#ffffff"
     bordercolor="#666666"
     borderopacity="1"
     objecttolerance="10"
     gridtolerance="10"
     guidetolerance="10"
     inkscape:pageopacity="0"
     inkscape:pageshadow="2"
     inkscape:window-width="1920"
     inkscape:window-height="1017"
     id="namedview11"
     showgrid="false"
     inkscape:zoom="6.9173179"
     inkscape:cx="61.41"
     inkscape:cy="61.439999"
     inkscape:window-x="-8"
     inkscape:window-y="-8"
     inkscape:window-maximized="1"
     inkscape:current-layer="Layer_1" />
  <defs
     id="defs4">
    <style
       id="style2">.cls-1{fill-rule:evenodd;}</style>
  </defs>
  <title
     id="title6">archery</title>
  <path
     class="cls-1"
     d="m 32.15,89.084565 1.33,-1.33 -7.06,-0.47 5.31,-5.31 7,0.52 1.27,-1.23 -7.07,-0.47 6.46,-6.47 7,0.52 6.29,-6.29 -50.52,-50.53 a 14.22,14.22 0 0 1 -1.65,-1.24 1.501466,1.501466 0 1 1 2,-2.24 c 5.81,5.08 14.31,1.7 24.54,-2.4 12.48,-5.0000003 28.63,-12.1300003 45.34,-5.9300003 7.19,2.67 16.49,9.6500003 24.8,17.8000003 l 15.17,-15.1300003 -7.22,-0.49 3.28,-3.25 14.4,-5 -5.14,14.2300003 -3.27,3.28 -0.33,-7 -15.17,15.12 c 8.14,8.29 15.14,17.56 17.91,24.69 6.16,15.86 -1.1,32.08 -6.18,44.74 -4.29,10.689995 -7.88,19.629995 -2.23,25.279995 a 1.49,1.49 0 0 1 -2.11,2.1 13.34,13.34 0 0 1 -1.82,-2.24 l -50.07,-50.069995 -6.29,6.29 0.66,7.17 -6.47,6.46 -0.61,-7.21 -1.23,1.23 0.66,7.16 -5.31,5.31 -0.61,-7.21 -1.33,1.34 0.65,7.16 -6.62,6.619995 -0.74,-8.819995 -8.66,-0.58 6.62,-6.62 7,0.51 z m 22.22,-22.21 36.94,-36.94 c -8,-7.87 -16.94,-14.59 -23.74,-17.12 -15.63,-5.8000003 -27.42,-2.67 -39.42,2.13 -7.84,3.11 -14.75,5.86 -20.68,5 l 46.9,46.9 z m 38.63,-35.22 -36.91,36.94 46.5,46.499995 c -0.75,-5.93 2.09,-13 5.3,-20.999995 4.87,-12.15 8.12,-24 2.38,-38.77 -2.63,-6.76 -9.37,-15.66 -17.27,-23.67 z"
     id="path8"
     style="fill:#ffffff;fill-opacity:1" />
</svg>
