<svg xmlns="http://www.w3.org/2000/svg" viewBox="0 0 201 201"><defs><style>.cls-1{fill:#fff;stroke:#fff;stroke-miterlimit:10;stroke-width:3px;}</style></defs><g id="Layer_2" data-name="Layer 2"><circle class="cls-1" cx="123" cy="6" r="4.5"/><circle class="cls-1" cx="141" cy="33" r="4.5"/><circle class="cls-1" cx="172.5" cy="10.5" r="9"/><path class="cls-1" d="M191.32,61.05a31.46,31.46,0,0,1-33.82-3.32,36,36,0,0,1-56.46-23A31.49,31.49,0,0,1,82.5,6c0-1,0-1.94.14-2.89A99,99,0,1,0,191.32,61.05ZM55.5,100.5a9,9,0,1,1-9,9A9,9,0,0,1,55.5,100.5Zm4.5,63A13.5,13.5,0,1,1,73.5,150,13.49,13.49,0,0,1,60,163.5Zm9-74A11.5,11.5,0,1,1,80.5,78,11.5,11.5,0,0,1,69,89.5Zm22.5,38a9,9,0,1,1,9-9A9,9,0,0,1,91.5,127.5Zm0-54a9,9,0,1,1,9,9A9,9,0,0,1,91.5,73.5ZM125,148a10,10,0,1,1-10-10h.5a9.5,9.5,0,0,1,9.5,9.5c0,.08,0,.17,0,.25S125,147.92,125,148Zm7-29.5A13.5,13.5,0,1,1,145.5,105,13.49,13.49,0,0,1,132,118.5Z"/></g></svg>