<?xml version="1.0" encoding="UTF-8" standalone="no"?>
<svg
   xmlns:dc="http://purl.org/dc/elements/1.1/"
   xmlns:cc="http://creativecommons.org/ns#"
   xmlns:rdf="http://www.w3.org/1999/02/22-rdf-syntax-ns#"
   xmlns:svg="http://www.w3.org/2000/svg"
   xmlns="http://www.w3.org/2000/svg"
   xmlns:sodipodi="http://sodipodi.sourceforge.net/DTD/sodipodi-0.dtd"
   xmlns:inkscape="http://www.inkscape.org/namespaces/inkscape"
   version="1.1"
   id="Layer_1"
   x="0px"
   y="0px"
   viewBox="0 0 122.88 115.21"
   style="enable-background:new 0 0 122.88 115.21"
   xml:space="preserve"
   sodipodi:docname="fork-icon.svg"
   inkscape:version="1.0.2-2 (e86c870879, 2021-01-15)"><metadata
     id="metadata11"><rdf:RDF><cc:Work
         rdf:about=""><dc:format>image/svg+xml</dc:format><dc:type
           rdf:resource="http://purl.org/dc/dcmitype/StillImage" /></cc:Work></rdf:RDF></metadata><defs
     id="defs9" /><sodipodi:namedview
     pagecolor="#ffffff"
     bordercolor="#666666"
     borderopacity="1"
     objecttolerance="10"
     gridtolerance="10"
     guidetolerance="10"
     inkscape:pageopacity="0"
     inkscape:pageshadow="2"
     inkscape:window-width="1920"
     inkscape:window-height="1017"
     id="namedview7"
     showgrid="false"
     inkscape:zoom="7.3778318"
     inkscape:cx="35.348322"
     inkscape:cy="57.605"
     inkscape:window-x="-8"
     inkscape:window-y="-8"
     inkscape:window-maximized="1"
     inkscape:current-layer="Layer_1" /><g
     id="g4"
     style="fill:#ffffff;fill-opacity:1"><path
       d="M29.03,100.46l20.79-25.21l9.51,12.13L41,110.69C33.98,119.61,20.99,110.21,29.03,100.46L29.03,100.46z M53.31,43.05 c1.98-6.46,1.07-11.98-6.37-20.18L28.76,1c-2.58-3.03-8.66,1.42-6.12,5.09L37.18,24c2.75,3.34-2.36,7.76-5.2,4.32L16.94,9.8 c-2.8-3.21-8.59,1.03-5.66,4.7c4.24,5.1,10.8,13.43,15.04,18.53c2.94,2.99-1.53,7.42-4.43,3.69L6.96,18.32 c-2.19-2.38-5.77-0.9-6.72,1.88c-1.02,2.97,1.49,5.14,3.2,7.34L20.1,49.06c5.17,5.99,10.95,9.54,17.67,7.53 c1.03-0.31,2.29-0.94,3.64-1.77l44.76,57.78c2.41,3.11,7.06,3.44,10.08,0.93l0.69-0.57c3.4-2.83,3.95-8,1.04-11.34L50.58,47.16 C51.96,45.62,52.97,44.16,53.31,43.05L53.31,43.05z M65.98,55.65l7.37-8.94C63.87,23.21,99-8.11,116.03,6.29 C136.72,23.8,105.97,66,84.36,55.57l-8.73,11.09L65.98,55.65L65.98,55.65z"
       id="path2"
       style="fill:#ffffff;fill-opacity:1" /></g></svg>
