<?xml version="1.0" encoding="UTF-8" standalone="no"?>
<svg
   xmlns:dc="http://purl.org/dc/elements/1.1/"
   xmlns:cc="http://creativecommons.org/ns#"
   xmlns:rdf="http://www.w3.org/1999/02/22-rdf-syntax-ns#"
   xmlns:svg="http://www.w3.org/2000/svg"
   xmlns="http://www.w3.org/2000/svg"
   xmlns:sodipodi="http://sodipodi.sourceforge.net/DTD/sodipodi-0.dtd"
   xmlns:inkscape="http://www.inkscape.org/namespaces/inkscape"
   version="1.1"
   id="Layer_1"
   x="0px"
   y="0px"
   viewBox="0 0 115.8 122.88"
   style="enable-background:new 0 0 115.8 122.88"
   xml:space="preserve"
   sodipodi:docname="magic-icon-white.svg"
   inkscape:version="1.0.2-2 (e86c870879, 2021-01-15)"><metadata
     id="metadata13"><rdf:RDF><cc:Work
         rdf:about=""><dc:format>image/svg+xml</dc:format><dc:type
           rdf:resource="http://purl.org/dc/dcmitype/StillImage" /><dc:title></dc:title></cc:Work></rdf:RDF></metadata><defs
     id="defs11" /><sodipodi:namedview
     pagecolor="#ffffff"
     bordercolor="#666666"
     borderopacity="1"
     objecttolerance="10"
     gridtolerance="10"
     guidetolerance="10"
     inkscape:pageopacity="0"
     inkscape:pageshadow="2"
     inkscape:window-width="1693"
     inkscape:window-height="941"
     id="namedview9"
     showgrid="false"
     inkscape:zoom="4.8912824"
     inkscape:cx="-0.94612446"
     inkscape:cy="54.613603"
     inkscape:window-x="0"
     inkscape:window-y="0"
     inkscape:window-maximized="0"
     inkscape:current-layer="g6" /><style
     type="text/css"
     id="style2">.st0{fill-rule:evenodd;clip-rule:evenodd;}</style><g
     id="g6"><path
       class="st0"
       d="M47.72,18.27l6.45,30.76l30.7,6.72L57.61,71.39l3.09,31.27l-23.3-21.09L8.62,94.18l12.86-28.68L0.59,42.02 l31.25,3.37L47.72,18.27L47.72,18.27L47.72,18.27z M65.23,95.27l26.66,27.12c0.64,0.65,1.7,0.65,2.35,0.01l10.36-10.27 c0.65-0.64,0.65-1.7,0.01-2.35L68.17,72.83c-0.64-0.65-2.33-0.92-2.35-0.01L65.23,95.27L65.23,95.27L65.23,95.27z M80.97,105.29 l12.16,12.43c0.37,0.38,0.99,0.38,1.37,0l6.04-5.98c0.38-0.38,0.38-0.99,0-1.37L88.1,97.74L80.97,105.29L80.97,105.29z M16.14,33.07h-0.51c0-4.18-1.56-7.83-4.68-10.95C7.82,19.01,4.17,17.45,0,17.45v-0.51c4.17,0,7.82-1.56,10.94-4.68 c3.12-3.13,4.68-6.78,4.68-10.94l0.51,0c0,4.17,1.56,7.82,4.68,10.94c3.12,3.12,6.77,4.68,10.94,4.68v0.51 c-4.17,0-7.82,1.56-10.94,4.68C17.7,25.25,16.14,28.89,16.14,33.07L16.14,33.07L16.14,33.07z M91.74,48.91h-0.79 c0-6.43-2.4-12.05-7.21-16.85c-4.81-4.8-10.42-7.2-16.85-7.2v-0.79c6.43,0,12.05-2.4,16.85-7.22C88.55,12.02,90.95,6.41,90.95,0 l0.79,0c0,6.43,2.4,12.05,7.21,16.85c4.81,4.8,10.42,7.21,16.85,7.21v0.79c-6.43,0-12.04,2.4-16.85,7.2 C94.14,36.86,91.74,42.48,91.74,48.91L91.74,48.91L91.74,48.91z"
       id="path4"
       style="stroke:none;stroke-opacity:1;fill:#ffffff;fill-opacity:1" /></g></svg>
